<svg width="36" height="36" viewBox="0 0 36 36" fill="none" xmlns="http://www.w3.org/2000/svg">
<rect width="36" height="36" fill="white"/>
<path d="M28.7589 30L22.5506 23.7926C21.6716 24.5413 20.6608 25.1207 19.5182 25.5309C18.3756 25.941 17.2271 26.146 16.0727 26.146C13.2578 26.146 10.8752 25.1717 8.92513 23.2231C6.97505 21.2744 6 18.8928 6 16.0783C6 13.2637 6.97387 10.881 8.92162 8.92998C10.8694 6.97901 13.2507 6.00235 16.0657 6C18.8807 5.99766 21.2644 6.97256 23.2168 8.92471C25.1692 10.8769 26.1455 13.2596 26.1455 16.073C26.1455 17.294 25.9292 18.4757 25.4968 19.6182C25.0644 20.7606 24.496 21.7379 23.7916 22.5499L30 28.7556L28.7589 30ZM16.0745 24.3866C18.4066 24.3866 20.3755 23.584 21.981 21.9787C23.5866 20.3734 24.3893 18.4042 24.3893 16.0713C24.3893 13.7383 23.5866 11.7697 21.981 10.1656C20.3755 8.56147 18.4066 7.75881 16.0745 7.75764C13.7423 7.75647 11.7729 8.55912 10.1662 10.1656C8.55949 11.7721 7.75672 13.7406 7.75789 16.0713C7.75907 18.4019 8.56184 20.3704 10.1662 21.9769C11.7706 23.5834 13.7394 24.386 16.0727 24.3849" fill="#001E40"/>
</svg>
