<svg width="26" height="26" viewBox="0 0 26 26" fill="none" xmlns="http://www.w3.org/2000/svg">
<path d="M19.5001 9.75C20.4231 9.75 20.9052 10.8182 20.3484 11.5082L20.266 11.5992L13.766 18.0992C13.5795 18.2858 13.3313 18.3978 13.068 18.4144C12.8047 18.4309 12.5445 18.3509 12.336 18.1892L12.2342 18.0992L5.7342 11.5992L5.64428 11.4974L5.58578 11.414L5.52728 11.31L5.50886 11.271L5.47961 11.1984L5.44495 11.0814L5.43411 11.024L5.42328 10.959L5.41895 10.8972V10.7694L5.42436 10.7066L5.43411 10.6416L5.44495 10.5852L5.47961 10.4683L5.50886 10.3957L5.5847 10.2527L5.65511 10.1552L5.7342 10.0674L5.83603 9.9775L5.91945 9.919L6.02345 9.8605L6.06245 9.84208L6.13503 9.81283L6.25203 9.77817L6.30945 9.76733L6.37445 9.7565L6.4362 9.75217L19.5001 9.75Z" fill="#001E40"/>
</svg>
