<svg width="24" height="24" viewBox="0 0 24 24" fill="none" xmlns="http://www.w3.org/2000/svg">
<path d="M13.0596 2L13.3799 2.11035H13.4697C13.5731 2.1573 13.6682 2.22107 13.75 2.2998L19.75 8.2998C19.8288 8.38167 19.8935 8.47663 19.9404 8.58008V8.66992C19.97 8.75751 19.9897 8.84857 20 8.94043V19C20 19.7956 19.6837 20.5585 19.1211 21.1211C18.5585 21.6837 17.7956 22 17 22H7C6.20435 22 5.44152 21.6837 4.87891 21.1211C4.3163 20.5585 4 19.7956 4 19V5C4 4.20435 4.3163 3.44152 4.87891 2.87891C5.44152 2.3163 6.20435 2 7 2H13.0596ZM7 4C6.73478 4 6.48051 4.10543 6.29297 4.29297C6.10543 4.48051 6 4.73478 6 5V19C6 19.2652 6.10543 19.5195 6.29297 19.707C6.48051 19.8946 6.73478 20 7 20H17C17.2652 20 17.5195 19.8946 17.707 19.707C17.8946 19.5195 18 19.2652 18 19V10H13C12.7348 10 12.4805 9.89457 12.293 9.70703C12.1054 9.5195 12 9.26522 12 9V4H7ZM14 8H16.5898L14 5.41016V8Z" fill="#B5B8BB"/>
</svg>
